<?xml version="1.0" standalone="no"?><!DOCTYPE svg PUBLIC "-//W3C//DTD SVG 1.1//EN" "http://www.w3.org/Graphics/SVG/1.1/DTD/svg11.dtd"><svg t="1566023583538" class="icon" viewBox="0 0 1025 1024" version="1.1" xmlns="http://www.w3.org/2000/svg" p-id="6524" xmlns:xlink="http://www.w3.org/1999/xlink" width="32.03125" height="32"><defs><style type="text/css"></style></defs><path d="M192 761.6c6.4 3.2 16 0 22.4-3.2l297.6-163.2c16-9.6 35.2-3.2 44.8 16l108.8 240c9.6 19.2 28.8 25.6 48 16l6.4-3.2c12.8-6.4 19.2-19.2 19.2-32l-22.4-326.4c0-12.8 6.4-25.6 16-28.8l208-112C1030.4 316.8 1027.2 272 1024 256c0-3.2-3.2-6.4-6.4-9.6-32-41.6-137.6-41.6-166.4-41.6-6.4 0-9.6 3.2-16 3.2-115.2 64-179.2 96-204.8 112-9.6 6.4-19.2 6.4-28.8 0L265.6 153.6c-9.6-6.4-22.4-6.4-32 0-19.2 12.8-22.4 38.4-6.4 54.4l188.8 182.4c16 16 12.8 41.6-6.4 51.2l-227.2 124.8c-9.6 6.4-22.4 6.4-32 0L60.8 512c-9.6-6.4-22.4-6.4-35.2 0H19.2c-16 9.6-22.4 32-12.8 48L112 736c3.2 3.2 6.4 6.4 12.8 9.6l67.2 16z" fill="#13227a" p-id="6525"></path></svg>