<?xml version="1.0" standalone="no"?><!DOCTYPE svg PUBLIC "-//W3C//DTD SVG 1.1//EN" "http://www.w3.org/Graphics/SVG/1.1/DTD/svg11.dtd"><svg t="1566023679565" class="icon" viewBox="0 0 1024 1024" version="1.1" xmlns="http://www.w3.org/2000/svg" p-id="9133" xmlns:xlink="http://www.w3.org/1999/xlink" width="32" height="32"><defs><style type="text/css"></style></defs><path d="M1024 518.32832C1024 794.76736 794.76736 1024 505.67168 1024 229.23264 1024 0 794.76736 0 518.32832 0 229.23264 229.23264 0 505.67168 0 794.76736 0 1024 229.23264 1024 518.32832zM512 261.0176a47.59552 47.59552 0 0 0-47.86176 50.25792l12.4928 270.39744c1.06496 22.528 20.19328 40.7552 42.76224 40.7552h-14.78656c22.56896 0 41.71776-18.432 42.74176-40.7552l12.51328-270.39744A47.4112 47.4112 0 0 0 512 261.0176z m0 522.0352a50.19648 50.19648 0 1 0 0-100.39296 50.19648 50.19648 0 0 0 0 100.39296z" fill="#F76260" p-id="9134"></path></svg>