<?xml version="1.0" standalone="no"?><!DOCTYPE svg PUBLIC "-//W3C//DTD SVG 1.1//EN" "http://www.w3.org/Graphics/SVG/1.1/DTD/svg11.dtd"><svg t="1566022348846" class="icon" viewBox="0 0 1331 1024" version="1.1" xmlns="http://www.w3.org/2000/svg" p-id="5282" xmlns:xlink="http://www.w3.org/1999/xlink" width="41.59375" height="32"><defs><style type="text/css"></style></defs><path d="M665.6 1023.078C298.291 1023.078 37.58 694.58 0.614 512 37.478 329.523 298.291 0.922 665.6 0.922c367.309 0 628.02 328.601 664.986 511.078-36.864 182.58-297.677 511.078-664.986 511.078z m0-912.588c-289.997 0-505.856 253.337-550.912 401.51C159.744 660.173 375.603 913.613 665.6 913.613S1171.456 660.173 1216.512 512C1171.456 363.827 955.597 110.49 665.6 110.49z m0 620.544c-122.47 0.102-221.696-97.997-221.696-219.034S543.232 292.966 665.6 292.966c122.47 0 221.696 97.997 221.696 219.034S787.968 731.136 665.6 731.136z m0-328.602c-61.133 0-110.797 49.152-110.797 109.568S604.467 621.568 665.6 621.568c61.133 0 110.797-49.152 110.797-109.568S726.733 402.432 665.6 402.432z" p-id="5283" fill="#1296db"></path></svg>